<svg width="33" height="32" viewBox="0 0 33 32" fill="none" xmlns="http://www.w3.org/2000/svg">
<g id="Social Icons" clip-path="url(#clip0_1104_539)">
<path id="Vector" d="M29.8895 24.9377C29.4056 26.0557 28.8328 27.0848 28.1691 28.031C27.2644 29.3208 26.5237 30.2136 25.9529 30.7094C25.0679 31.5232 24.1198 31.94 23.1046 31.9637C22.3757 31.9637 21.4967 31.7563 20.4735 31.3356C19.447 30.9168 18.5036 30.7094 17.641 30.7094C16.7364 30.7094 15.7661 30.9168 14.7283 31.3356C13.689 31.7563 12.8516 31.9755 12.2115 31.9973C11.2379 32.0387 10.2674 31.6101 9.29877 30.7094C8.68052 30.1702 7.90721 29.2457 6.98082 27.9361C5.98688 26.5377 5.16972 24.916 4.52954 23.0672C3.84394 21.0702 3.50024 19.1364 3.50024 17.2643C3.50024 15.1197 3.96364 13.2701 4.8918 11.7201C5.62126 10.4751 6.5917 9.49305 7.80628 8.77209C9.02086 8.05112 10.3332 7.68372 11.7465 7.66022C12.5198 7.66022 13.5339 7.89942 14.7941 8.36953C16.0508 8.84122 16.8576 9.08042 17.2114 9.08042C17.4759 9.08042 18.3723 8.80073 19.8918 8.24311C21.3288 7.72599 22.5416 7.51188 23.5352 7.59622C26.2274 7.8135 28.2501 8.8748 29.5952 10.7868C27.1874 12.2458 25.9963 14.2892 26.02 16.9105C26.0417 18.9523 26.7825 20.6514 28.2382 22.0005C28.8979 22.6267 29.6347 23.1106 30.4544 23.4543C30.2767 23.9699 30.089 24.4637 29.8895 24.9377ZM23.7149 0.640182C23.7149 2.24055 23.1302 3.7348 21.9648 5.11787C20.5585 6.76207 18.8574 7.71217 17.0127 7.56225C16.9892 7.37025 16.9756 7.16818 16.9756 6.95584C16.9756 5.4195 17.6444 3.7753 18.8321 2.43094C19.4251 1.75027 20.1792 1.1843 21.0938 0.732821C22.0063 0.288073 22.8695 0.0421187 23.6813 0C23.705 0.213944 23.7149 0.427901 23.7149 0.640162V0.640182Z" fill="white"/>
</g>
<defs>
<clipPath id="clip0_1104_539">
<rect width="32" height="32" fill="white" transform="translate(0.833496)"/>
</clipPath>
</defs>
</svg>
