<svg width="50" height="50" viewBox="0 0 50 50" fill="none" xmlns="http://www.w3.org/2000/svg">
<g id="Logo">
<rect width="50" height="50" rx="25" fill="#F0B90B"/>
<path id="Vector" d="M15.1279 25.0005L11.093 29.037L7.01904 25.0005L11.0915 20.9281L15.1279 25.0005ZM24.9922 15.1363L31.9419 22.0859L36.0158 18.015L24.9922 7.02734L13.9687 18.0509L18.0426 22.1218L24.9922 15.1363ZM38.893 20.9281L34.8565 25.0005L38.9289 29.073L42.9999 25.0005L38.893 20.9281ZM24.9922 34.8648L18.0426 27.8792L13.9687 31.9517L24.9922 42.9737L36.0158 31.9502L31.9419 27.8792L24.9922 34.8648ZM24.9922 29.0385L29.0647 24.9646L24.9922 20.9296L20.9198 25.0005L24.9922 29.0385Z" fill="white"/>
</g>
</svg>
