<svg width="100" height="20" viewBox="0 0 100 20" fill="none" xmlns="http://www.w3.org/2000/svg">
<path d="M4.51167 10L2.26667 12.2458L0 10L2.26583 7.73417L4.51167 10ZM10 4.51167L13.8667 8.37833L16.1333 6.11333L10 0L3.86667 6.13333L6.13333 8.39833L10 4.51167ZM17.7342 7.73417L15.4883 10L17.7542 12.2658L20.0192 10L17.7342 7.73417ZM10 15.4883L6.13333 11.6017L3.86667 13.8675L10 20L16.1333 13.8667L13.8667 11.6017L10 15.4883ZM10 12.2467L12.2658 9.98L10 7.735L7.73417 10L10 12.2458V12.2467ZM33.8283 12.48V12.4417C33.8283 10.9767 33.0467 10.2342 31.7775 9.74583C32.5583 9.31667 33.2225 8.6125 33.2225 7.3825V7.34417C33.2225 5.625 31.8358 4.51167 29.6092 4.51167H24.5117V15.4692H29.7267C32.2067 15.4883 33.8283 14.4725 33.8283 12.4808V12.48ZM30.82 7.79333C30.82 8.61333 30.1558 8.945 29.0817 8.945H26.8558V6.62083H29.2383C30.2542 6.62083 30.82 7.03083 30.82 7.75417V7.79333ZM31.4258 12.1683C31.4258 12.9883 30.7817 13.36 29.7258 13.36H26.8558V10.9567H29.6483C30.8792 10.9567 31.4258 11.4067 31.4258 12.1483V12.1683ZM38.8867 15.4883V4.51167H36.465V15.4692H38.8867V15.4883ZM51.8558 15.4883V4.51167H49.4725V11.27L44.3358 4.51167H42.1092V15.4692H44.4925V8.51583L49.805 15.4883H51.855H51.8558ZM65.2142 15.4883L60.5083 4.45333H58.2825L53.575 15.4883H56.0558L57.0517 13.0275H61.6808L62.6767 15.4883H65.2158H65.2142ZM60.82 10.8983H57.91L59.375 7.34417L60.82 10.8983ZM76.7192 15.4883V4.51167H74.3358V11.27L69.1992 4.51167H66.9725V15.4692H69.3558V8.51583L74.6683 15.4883H76.7183H76.7192ZM89.16 13.7108L87.6175 12.1683C86.7575 12.9492 85.9958 13.4567 84.7267 13.4567C82.8517 13.4567 81.5433 11.8942 81.5433 10.0192V9.96083C81.5433 8.08583 82.8708 6.54333 84.7267 6.54333C85.82 6.54333 86.68 7.01167 87.5392 7.77333L89.0817 5.99583C88.0667 5 86.8358 4.29667 84.7658 4.29667C81.4067 4.29667 79.0433 6.855 79.0433 9.96083V10C79.0433 13.1442 81.445 15.6442 84.6683 15.6442C86.7775 15.6642 88.0275 14.9217 89.16 13.7108ZM99.4533 15.4883V13.34H93.4958V11.035H98.6717V8.88667H93.4958V6.66H99.375V4.51167H91.1133V15.4692H99.4533V15.4883Z" fill="#A0AEC0"/>
</svg>
