<svg width="50" height="50" viewBox="0 0 50 50" fill="none" xmlns="http://www.w3.org/2000/svg">
<g id="Logo">
<rect width="50" height="50" rx="25" fill="#161929"/>
<path id="Vector" d="M32.4131 28.8046V19.2812H34.3273V28.8046H32.4131Z" fill="#F7A600"/>
<path id="Vector_2" d="M10.1038 31.6327H6V22.1094H9.93874C11.853 22.1094 12.9684 23.1526 12.9684 24.7845C12.9684 25.8409 12.252 26.5235 11.7562 26.7508C12.348 27.0182 13.1056 27.62 13.1056 28.8913C13.1056 30.6696 11.853 31.6327 10.1038 31.6327ZM9.78722 23.7682H7.91424V25.9618H9.78722C10.5996 25.9618 11.0541 25.5204 11.0541 24.8647C11.0541 24.2097 10.5996 23.7682 9.78722 23.7682ZM9.91099 27.6338H7.91424V29.9746H9.91099C10.7788 29.9746 11.1914 29.4399 11.1914 28.7973C11.1914 28.1555 10.7781 27.6338 9.91099 27.6338Z" fill="white"/>
<path id="Vector_3" d="M18.944 27.7271V31.6327H17.0433V27.7271L14.0962 22.1094H16.1754L18.0072 25.948L19.8112 22.1094H21.8904L18.944 27.7271Z" fill="white"/>
<path id="Vector_4" d="M27.3172 31.6327H23.2134V22.1094H27.1521C29.0664 22.1094 30.1818 23.1526 30.1818 24.7845C30.1818 25.8409 29.4654 26.5235 28.9696 26.7508C29.5614 27.0182 30.319 27.62 30.319 28.8913C30.319 30.6696 29.0664 31.6327 27.3172 31.6327ZM27.0006 23.7682H25.1276V25.9618H27.0006C27.813 25.9618 28.2675 25.5204 28.2675 24.8647C28.2675 24.2097 27.813 23.7682 27.0006 23.7682ZM27.1244 27.6338H25.1276V29.9746H27.1244C27.9922 29.9746 28.4048 29.4399 28.4048 28.7973C28.4048 28.1555 27.9922 27.6338 27.1244 27.6338Z" fill="white"/>
<path id="Vector_5" d="M40.4963 23.7682V31.6334H38.5821V23.7682H36.0205V22.1094H43.0579V23.7682H40.4963Z" fill="white"/>
</g>
</svg>
