<svg width="16" height="16" viewBox="0 0 16 16" fill="none" xmlns="http://www.w3.org/2000/svg">
<g clip-path="url(#clip0_394_93)">
<path fill-rule="evenodd" clip-rule="evenodd" d="M14.0028 3.40998C13.5884 3.12282 13.0732 2.96536 12.4626 2.96536H3.5262L3.50217 2.69092C3.45724 2.33902 3.38094 1.8414 3.04098 1.44905C2.67908 1.03138 2.11596 0.832031 1.3335 0.832031C1.05736 0.832031 0.833496 1.05589 0.833496 1.33203C0.833496 1.60817 1.05736 1.83203 1.3335 1.83203C1.95716 1.83203 2.185 1.98824 2.28522 2.1039C2.40608 2.24339 2.46315 2.45388 2.50877 2.80626L2.56518 3.50556L2.60819 4.0389L2.96653 8.48143L2.96661 8.48243C3.05468 9.6273 3.42 10.6342 4.09383 11.3609C4.77636 12.097 5.73255 12.4987 6.89803 12.4987H11.0715C12.2536 12.4987 13.072 12.0831 13.6382 11.3185C14.1684 10.6026 14.4463 9.6173 14.6882 8.55816L15.035 7.1397C15.2273 6.35349 15.2363 5.34893 14.8786 4.5131C14.6968 4.08818 14.4146 3.69542 14.0028 3.40998ZM7.50016 6.9987C7.50016 6.72256 7.2763 6.4987 7.00016 6.4987C6.72403 6.4987 6.50016 6.72256 6.50016 6.9987V8.33203C6.50016 8.60816 6.72403 8.83203 7.00016 8.83203C7.2763 8.83203 7.50016 8.60816 7.50016 8.33203V6.9987ZM9.00016 6.4987C9.2763 6.4987 9.50016 6.72256 9.50016 6.9987V8.33203C9.50016 8.60816 9.2763 8.83203 9.00016 8.83203C8.72403 8.83203 8.50016 8.60816 8.50016 8.33203V6.9987C8.50016 6.72256 8.72403 6.4987 9.00016 6.4987ZM11.5002 6.9987C11.5002 6.72256 11.2763 6.4987 11.0002 6.4987C10.724 6.4987 10.5002 6.72256 10.5002 6.9987V8.33203C10.5002 8.60816 10.724 8.83203 11.0002 8.83203C11.2763 8.83203 11.5002 8.60816 11.5002 8.33203V6.9987Z" fill="white"/>
<path fill-rule="evenodd" clip-rule="evenodd" d="M6.00016 15.3301C5.63198 15.3301 5.3335 15.0316 5.3335 14.6634C5.3335 14.2952 5.63198 13.9961 6.00016 13.9961C6.36835 13.9961 6.66683 14.2946 6.66683 14.6628C6.66683 15.031 6.36835 15.3301 6.00016 15.3301Z" fill="white"/>
<path fill-rule="evenodd" clip-rule="evenodd" d="M11.3332 15.3301C10.965 15.3301 10.6665 15.0316 10.6665 14.6634C10.6665 14.2952 10.965 13.9961 11.3332 13.9961C11.7014 13.9961 11.9998 14.2946 11.9998 14.6628C11.9998 15.031 11.7014 15.3301 11.3332 15.3301Z" fill="white"/>
</g>
<defs>
<clipPath id="clip0_394_93">
<rect width="16" height="16" fill="white"/>
</clipPath>
</defs>
</svg>
