<svg width="20" height="21" viewBox="0 0 20 21" fill="none" xmlns="http://www.w3.org/2000/svg">
<path d="M1.6665 14.8826V15.8349C1.6665 16.7873 1.6665 18.6921 4.52365 18.6921H5.47603C8.33317 18.6921 8.33317 16.7873 8.33317 15.8349V14.8826C8.33317 13.9301 8.33317 12.0254 5.47603 12.0254H4.52365C1.6665 12.0254 1.6665 13.9301 1.6665 14.8826Z" stroke="#A0AEC0" stroke-width="1.25" stroke-linecap="round"/>
<path d="M1.6665 4.88253V5.83492C1.6665 6.7873 1.6665 8.69206 4.52365 8.69206H5.47603C8.33317 8.69206 8.33317 6.7873 8.33317 5.83492V4.88253C8.33317 3.93015 8.33317 2.02539 5.47603 2.02539H4.52365C1.6665 2.02539 1.6665 3.93015 1.6665 4.88253Z" stroke="#A0AEC0" stroke-width="1.25" stroke-linecap="round"/>
<path d="M11.6665 14.8826V15.8349C11.6665 16.7873 11.6665 18.6921 14.5237 18.6921H15.476C18.3332 18.6921 18.3332 16.7873 18.3332 15.8349V14.8826C18.3332 13.9301 18.3332 12.0254 15.476 12.0254H14.5237C11.6665 12.0254 11.6665 13.9301 11.6665 14.8826Z" stroke="#A0AEC0" stroke-width="1.25" stroke-linecap="round"/>
<path d="M11.6665 4.88253V5.83492C11.6665 6.7873 11.6665 8.69206 14.5237 8.69206H15.476C18.3332 8.69206 18.3332 6.7873 18.3332 5.83492V4.88253C18.3332 3.93015 18.3332 2.02539 15.476 2.02539H14.5237C11.6665 2.02539 11.6665 3.93015 11.6665 4.88253Z" stroke="#A0AEC0" stroke-width="1.25" stroke-linecap="round"/>
</svg>
