<svg width="20" height="21" viewBox="0 0 20 21" fill="none" xmlns="http://www.w3.org/2000/svg">
<path d="M1.25 14.8236V15.8951C1.25 16.9665 1.25 19.1094 4.46428 19.1094H5.53572C8.75 19.1094 8.75 16.9665 8.75 15.8951V14.8236C8.75 13.7522 8.75 11.6094 5.53572 11.6094H4.46428C1.25 11.6094 1.25 13.7522 1.25 14.8236Z" fill="white"/>
<path d="M1.25 4.82366V5.89509C1.25 6.96652 1.25 9.10938 4.46428 9.10938H5.53572C8.75 9.10938 8.75 6.96652 8.75 5.89509V4.82366C8.75 3.75223 8.75 1.60938 5.53572 1.60938H4.46428C1.25 1.60938 1.25 3.75223 1.25 4.82366Z" fill="white"/>
<path d="M11.25 4.82366V5.89509C11.25 6.96652 11.25 9.10938 14.4642 9.10938H15.5358C18.75 9.10938 18.75 6.96652 18.75 5.89509V4.82366C18.75 3.75223 18.75 1.60938 15.5358 1.60938H14.4642C11.25 1.60938 11.25 3.75223 11.25 4.82366Z" fill="white"/>
<path d="M11.25 14.8236V15.8951C11.25 16.9665 11.25 19.1094 14.4642 19.1094H15.5358C18.75 19.1094 18.75 16.9665 18.75 15.8951V14.8236C18.75 13.7522 18.75 11.6094 15.5358 11.6094H14.4642C11.25 11.6094 11.25 13.7522 11.25 14.8236Z" fill="white"/>
</svg>
