<svg width="50" height="50" viewBox="0 0 50 50" fill="none" xmlns="http://www.w3.org/2000/svg">
<g id="Logo" clip-path="url(#clip0_394_433)">
<path id="Vector" d="M25 50C38.8071 50 50 38.8071 50 25C50 11.1929 38.8071 0 25 0C11.1929 0 0 11.1929 0 25C0 38.8071 11.1929 50 25 50Z" fill="#2DBD96"/>
<path id="Vector_2" fill-rule="evenodd" clip-rule="evenodd" d="M21.0938 25L29.2188 33.2812L34.375 28.125C35.3125 27.1875 36.7188 27.1875 37.5 28.125C38.4375 29.0625 38.4375 30.625 37.5 31.5625L30.7813 38.4375C29.8438 39.375 28.4375 39.375 27.5 38.4375L17.8125 28.4375V34.375C17.8125 35.625 16.7188 36.7187 15.4688 36.7187C14.2188 36.7187 13.125 35.625 13.125 34.375V15.625C13.125 14.375 14.2188 13.2812 15.4688 13.2812C16.7188 13.2812 17.8125 14.375 17.8125 15.625V21.5625L27.5 11.5625C28.4375 10.625 29.8438 10.625 30.7813 11.5625L37.5 18.4375C38.4375 19.375 38.4375 20.9375 37.5 21.875C36.5625 22.8125 35.1563 22.8125 34.375 21.875L29.2188 16.5625L21.0938 25ZM29.2188 22.6562C30.4688 22.6562 31.5625 23.75 31.5625 25C31.5625 26.25 30.4688 27.3438 29.2188 27.3438C27.9688 27.3438 26.875 26.25 26.875 25C26.875 23.75 27.9688 22.6562 29.2188 22.6562Z" fill="white"/>
</g>
<defs>
<clipPath id="clip0_394_433">
<rect width="50" height="50" fill="white"/>
</clipPath>
</defs>
</svg>
