<svg width="14" height="14" viewBox="0 0 14 14" fill="none" xmlns="http://www.w3.org/2000/svg">
<path fill-rule="evenodd" clip-rule="evenodd" d="M7.00016 13.6693C3.31826 13.6693 0.333496 10.6845 0.333496 7.0026C0.333496 3.3207 3.31826 0.335938 7.00016 0.335938C10.682 0.335938 13.6668 3.3207 13.6668 7.0026C13.6668 10.6845 10.682 13.6693 7.00016 13.6693ZM6.2785 4.2579C6.45576 4.18622 6.67016 4.16122 6.88383 4.17146C7.09896 4.18178 7.27636 4.22594 7.36356 4.26004C7.51536 4.3194 7.63883 4.38233 7.76083 4.48967C7.8851 4.599 8.03123 4.77532 8.19136 5.08838C8.31716 5.33422 8.61836 5.43158 8.86423 5.30582C9.1101 5.18006 9.20743 4.87882 9.0817 4.63297C8.87816 4.23516 8.6607 3.94941 8.4213 3.73885C8.1797 3.5263 7.9395 3.4115 7.7277 3.32869C7.6605 3.30241 7.58383 3.27795 7.50016 3.25646V3.0026C7.50016 2.72646 7.2763 2.5026 7.00016 2.5026C6.72403 2.5026 6.50016 2.72646 6.50016 3.0026V3.18485C6.30563 3.20598 6.10316 3.2505 5.90636 3.32973C5.23994 3.59119 4.50016 4.22338 4.50016 5.21619C4.50016 5.61522 4.55631 5.97947 4.72191 6.30314C4.89118 6.634 5.14985 6.8742 5.47001 7.06647C5.99076 7.37927 6.49503 7.46074 7.1645 7.48414C7.41016 7.49274 7.62556 7.55467 7.78136 7.6164C7.85836 7.64687 7.91823 7.67634 7.95683 7.69687C7.97603 7.70707 7.9897 7.71494 7.9973 7.71947L8.00383 7.7234L8.01136 7.72807C8.21523 7.85327 8.32156 7.97154 8.38616 8.1006C8.4547 8.23747 8.50016 8.43414 8.50016 8.75494C8.50016 9.20447 8.17083 9.56514 7.7237 9.7438L7.7183 9.746C7.5423 9.81874 7.3295 9.84414 7.11696 9.83374C6.90296 9.8232 6.72663 9.77827 6.64023 9.7438C6.48903 9.68334 6.36576 9.6192 6.24356 9.50934C6.1187 9.39707 5.97176 9.21594 5.8109 8.89447C5.6873 8.64754 5.38695 8.54754 5.14001 8.67114C4.89307 8.79474 4.79308 9.09514 4.91668 9.34207C5.11944 9.7472 5.33615 10.0383 5.57496 10.2529C5.81636 10.47 6.05676 10.5875 6.26916 10.6724C6.33736 10.6996 6.41516 10.725 6.50016 10.7472V11.0026C6.50016 11.2787 6.72403 11.5026 7.00016 11.5026C7.2763 11.5026 7.50016 11.2787 7.50016 11.0026V10.8201C7.69583 10.7985 7.89956 10.7527 8.09743 10.6713C8.76843 10.4023 9.50016 9.757 9.50016 8.75494C9.50016 8.34927 9.44436 7.98047 9.28036 7.653C9.11303 7.31867 8.8567 7.07414 8.53716 6.87754L8.53116 6.87374C8.5249 6.8698 8.5167 6.86487 8.50683 6.859C8.48703 6.84727 8.4601 6.83187 8.42663 6.81407C8.35983 6.77854 8.26596 6.73274 8.14963 6.68667C7.9187 6.59514 7.58863 6.49834 7.19943 6.48474C6.59923 6.4638 6.29343 6.39454 5.98483 6.2092C5.7803 6.0864 5.67536 5.9712 5.61216 5.84767C5.5453 5.717 5.50016 5.52796 5.50016 5.21619C5.50016 4.78872 5.82143 4.43664 6.27316 4.26004L6.2785 4.2579Z" fill="white"/>
</svg>
