<svg width="20" height="21" viewBox="0 0 20 21" fill="none" xmlns="http://www.w3.org/2000/svg">
<g id="presentation-chart">
<path id="Vector" d="M16.3843 5.98568C16.8472 5.98568 17.4597 5.85816 17.9764 5.51826C18.5198 5.16084 18.9584 4.56107 18.9584 3.69401H17.7084C17.7084 4.07695 17.5379 4.31052 17.2895 4.47393C17.0144 4.65486 16.6524 4.73568 16.3843 4.73568V5.98568ZM16.3843 2.65234C16.6524 2.65234 17.0144 2.73316 17.2895 2.91409C17.5379 3.0775 17.7084 3.31107 17.7084 3.69401H18.9584C18.9584 2.82695 18.5198 2.22719 17.9764 1.86977C17.4597 1.52987 16.8472 1.40234 16.3843 1.40234V2.65234ZM3.61581 4.73568C3.34773 4.73568 2.98572 4.65486 2.71066 4.47394C2.46223 4.31052 2.29175 4.07695 2.29175 3.69401H1.04175C1.04175 4.56107 1.48035 5.16084 2.02372 5.51826C2.54046 5.85816 3.15298 5.98568 3.61581 5.98568V4.73568ZM3.6158 1.40234C3.15298 1.40234 2.54046 1.52986 2.02372 1.86976C1.48035 2.22719 1.04175 2.82695 1.04175 3.69401H2.29175C2.29175 3.31107 2.46223 3.0775 2.71066 2.91409C2.98572 2.73316 3.34773 2.65234 3.6158 2.65234V1.40234ZM16.3843 4.73568H3.61581V5.98568H16.3843V4.73568ZM3.6158 2.65234H16.3843V1.40234H3.6158V2.65234Z" fill="#A0AEC0"/>
<path id="Vector_2" d="M10 15.3594V18.6927" stroke="#A0AEC0" stroke-width="1.25" stroke-linecap="round"/>
<path id="Vector_3" d="M3.3335 5.35938V10.3594C3.3335 12.026 3.3335 15.3594 8.3335 15.3594C10.0125 15.3594 9.7255 15.3594 11.6668 15.3594C16.6668 15.3594 16.6668 12.026 16.6668 10.3594V5.35938" stroke="#A0AEC0" stroke-width="1.25" stroke-linecap="round" stroke-linejoin="round"/>
<path id="Vector_4" d="M7.5 11.1953V12.0286" stroke="#A0AEC0" stroke-width="1.25" stroke-linecap="round"/>
<path id="Vector_5" d="M10 9.52734V12.0273" stroke="#A0AEC0" stroke-width="1.25" stroke-linecap="round"/>
<path id="Vector_6" d="M12.5 8.69531V12.0286" stroke="#A0AEC0" stroke-width="1.25" stroke-linecap="round"/>
<path id="Vector_7" d="M10 17.0273L7.5 18.694" stroke="#A0AEC0" stroke-width="1.25" stroke-linecap="round"/>
<path id="Vector_8" d="M10 17.0273L12.5 18.694" stroke="#A0AEC0" stroke-width="1.25" stroke-linecap="round"/>
</g>
</svg>
