<svg width="13" height="13" viewBox="0 0 13 13" fill="none" xmlns="http://www.w3.org/2000/svg">
<g clip-path="url(#clip0_394_3449)">
<path d="M10.6499 3.6569C10.9508 3.6569 11.3489 3.57402 11.6848 3.35308C12.038 3.12075 12.3231 2.73091 12.3231 2.16732H11.5106C11.5106 2.41623 11.3998 2.56805 11.2383 2.67426C11.0595 2.79187 10.8242 2.8444 10.6499 2.8444V3.6569ZM10.6499 1.49023C10.8242 1.49023 11.0595 1.54277 11.2383 1.66037C11.3998 1.76659 11.5106 1.91841 11.5106 2.16732H12.3231C12.3231 1.60373 12.038 1.21388 11.6848 0.981561C11.3489 0.760626 10.9508 0.677734 10.6499 0.677734V1.49023ZM2.35038 2.8444C2.17614 2.8444 1.94083 2.79187 1.76204 2.67427C1.60056 2.56805 1.48975 2.41623 1.48975 2.16732H0.677246C0.677246 2.73091 0.962336 3.12075 1.31553 3.35308C1.65141 3.57402 2.04955 3.6569 2.35038 3.6569V2.8444ZM2.35038 0.677734C2.04955 0.677734 1.65141 0.76062 1.31553 0.981555C0.962336 1.21388 0.677246 1.60373 0.677246 2.16732H1.48975C1.48975 1.91841 1.60056 1.76659 1.76204 1.66037C1.94083 1.54277 2.17614 1.49023 2.35038 1.49023V0.677734ZM10.6499 2.8444H2.35038V3.6569H10.6499V2.8444ZM2.35038 1.49023H10.6499V0.677734H2.35038V1.49023Z" fill="white"/>
<path d="M6.5 9.75V11.9167" stroke="white" stroke-width="0.8125" stroke-linecap="round"/>
<path d="M2.16675 3.25V6.5C2.16675 7.58333 2.16675 9.75 5.41675 9.75C6.5081 9.75 6.32155 9.75 7.58341 9.75C10.8334 9.75 10.8334 7.58333 10.8334 6.5V3.25" stroke="white" stroke-width="0.8125" stroke-linecap="round" stroke-linejoin="round"/>
<path d="M4.875 7.04102V7.58268" stroke="white" stroke-width="0.8125" stroke-linecap="round"/>
<path d="M6.5 5.95898V7.58398" stroke="white" stroke-width="0.8125" stroke-linecap="round"/>
<path d="M8.125 5.41602V7.58268" stroke="white" stroke-width="0.8125" stroke-linecap="round"/>
<path d="M6.5 10.834L4.875 11.9173" stroke="white" stroke-width="0.8125" stroke-linecap="round"/>
<path d="M6.5 10.834L8.125 11.9173" stroke="white" stroke-width="0.8125" stroke-linecap="round"/>
</g>
<defs>
<clipPath id="clip0_394_3449">
<rect width="13" height="13" fill="white"/>
</clipPath>
</defs>
</svg>
