<svg width="15" height="14" viewBox="0 0 15 14" fill="none" xmlns="http://www.w3.org/2000/svg">
<path d="M14.3435 0.620473C14.1536 0.462562 13.9246 0.35907 13.6806 0.321009C13.4366 0.282949 13.1869 0.311745 12.958 0.404333L1.01077 5.2279C0.755265 5.33302 0.537776 5.51336 0.387165 5.74498C0.236554 5.9766 0.159944 6.24854 0.167502 6.52472C0.175061 6.80089 0.26643 7.06824 0.429484 7.29128C0.592538 7.51431 0.819565 7.68248 1.08043 7.77347L3.4971 8.61397L4.8441 13.0684C4.8624 13.1279 4.88897 13.1845 4.92302 13.2367C4.92818 13.2447 4.93547 13.2506 4.94097 13.2584C4.9803 13.3133 5.02784 13.3618 5.08192 13.4022C5.0973 13.4139 5.11203 13.4249 5.12847 13.4353C5.19175 13.4773 5.26184 13.508 5.33562 13.5261L5.34351 13.5267L5.34799 13.5287C5.39234 13.5377 5.43749 13.5423 5.48275 13.5423C5.48711 13.5423 5.49097 13.5403 5.49529 13.5402C5.56359 13.539 5.6313 13.5272 5.69601 13.5053C5.71107 13.5002 5.72397 13.4916 5.73857 13.4854C5.78682 13.4654 5.83254 13.4398 5.87476 13.409C5.90858 13.3805 5.94241 13.3521 5.97624 13.3236L7.77769 11.3347L10.4645 13.416C10.7011 13.6002 10.9922 13.7003 11.292 13.7005C11.6061 13.7001 11.9106 13.5918 12.1543 13.3936C12.398 13.1954 12.5661 12.9194 12.6306 12.612L14.8057 1.93428C14.855 1.69396 14.838 1.44476 14.7566 1.21334C14.6752 0.981919 14.5324 0.776989 14.3435 0.620473ZM5.7471 8.82621C5.65466 8.91828 5.59147 9.0356 5.56546 9.16345L5.35912 10.1661L4.83641 8.4374L7.54658 7.0261L5.7471 8.82621ZM11.2816 12.362L8.10647 9.90235C7.97363 9.79971 7.807 9.75088 7.63977 9.7656C7.47254 9.78032 7.31699 9.85751 7.20413 9.98178L6.62719 10.6186L6.83108 9.62761L11.5531 4.90561C11.6658 4.79305 11.7345 4.64385 11.7467 4.48503C11.7588 4.32621 11.7138 4.16827 11.6195 4.03982C11.5253 3.91138 11.3882 3.82092 11.2331 3.78484C11.0779 3.74875 10.915 3.76943 10.7738 3.84311L3.99693 7.37153L1.51403 6.46293L13.4997 1.66799L11.2816 12.362Z" fill="#A0AEC0"/>
</svg>
