<svg width="20" height="20" viewBox="0 0 20 20" fill="none" xmlns="http://www.w3.org/2000/svg">
<g clip-path="url(#clip0_394_3332)">
<path d="M11.5508 2.88546C11.1563 1.25953 8.84334 1.25953 8.44892 2.88546C8.19336 3.93638 6.99336 4.43453 6.06743 3.87158C4.63781 3.0012 3.00261 4.63732 3.87299 6.06602C4.24984 6.66602 4.29151 7.99935 2.88595 8.44843C1.26002 8.84285 1.26002 11.1559 2.88595 11.5503C4.07446 11.8386 4.35854 13.1327 3.87206 13.9318C3.00169 15.3614 4.63781 16.9966 6.06651 16.1262C7.08317 15.541 8.18511 16.1262 8.44892 17.1133C8.84334 18.7392 11.1563 18.7392 11.5508 17.1133C11.8748 16.041 12.9963 15.5573 13.9323 16.1271C15.3618 16.9975 16.9971 15.3614 16.1267 13.9327C15.6007 13.0692 15.9981 11.8209 17.1138 11.5503C18.7397 11.1559 18.7397 8.84285 17.1138 8.44843C16.1019 8.20298 15.5545 7.00834 16.1276 6.06694C16.998 4.63732 15.3618 3.00213 13.9332 3.8725C12.9165 4.58268 11.6665 3.74935 11.5508 2.88546Z" stroke="#A0AEC0" stroke-width="1.5" stroke-linecap="round" stroke-linejoin="round"/>
<path d="M10.0002 7.08398C8.38933 7.08398 7.0835 8.38982 7.0835 10.0007C7.0835 11.6115 8.38933 12.9173 10.0002 12.9173C11.611 12.9173 12.9168 11.6115 12.9168 10.0007C12.9168 8.38982 11.611 7.08398 10.0002 7.08398Z" stroke="#A0AEC0" stroke-width="1.5" stroke-linecap="round"/>
</g>
<defs>
<clipPath id="clip0_394_3332">
<rect width="20" height="20" fill="white"/>
</clipPath>
</defs>
</svg>
