<svg width="14" height="14" viewBox="0 0 14 14" fill="none" xmlns="http://www.w3.org/2000/svg">
<path d="M4.54821 3.11028C4.32337 3.42348 4.00037 3.65085 3.63154 3.75557C3.21183 3.87473 1.71707 3.9131 1.24095 4.1665C0.431833 4.59712 0.10498 5.59668 0.50112 6.42898C0.74268 6.93652 2.0131 7.93585 2.29327 8.30425C2.58202 8.68398 2.70064 9.16818 2.62052 9.63998C2.5404 10.1118 1.94169 11.4199 1.94459 11.9594C1.95009 12.986 2.84075 13.7783 3.85019 13.6546C4.5332 13.5709 6.01874 12.5918 6.53714 12.4439C6.83954 12.3576 7.15981 12.3576 7.46221 12.4439C7.99967 12.5973 9.48761 13.5735 10.1491 13.6546C11.1586 13.7783 12.0493 12.9859 12.0547 11.9594C12.0547 11.4225 11.4589 10.1118 11.3788 9.63998C11.2987 9.16818 11.4173 8.68398 11.7061 8.30425C11.9856 7.93672 13.2572 6.93538 13.4982 6.42898C13.8943 5.59668 13.5675 4.59712 12.7584 4.1665C12.2829 3.91342 10.7863 3.87148 10.3678 3.75557C9.99901 3.65085 9.67601 3.42348 9.45114 3.11028C9.17067 2.71962 8.57087 1.10628 8.03881 0.691724C7.42661 0.214738 6.57274 0.214738 5.96054 0.691724C5.43087 1.10444 4.826 2.72332 4.54821 3.11028Z" fill="#FFD928"/>
</svg>
