<svg width="16" height="14" viewBox="0 0 16 14" fill="none" xmlns="http://www.w3.org/2000/svg">
<path d="M15.3279 1.63412C15.328 1.51637 15.2969 1.40069 15.2377 1.29888C15.1785 1.19708 15.0934 1.11277 14.9911 1.05454C14.8887 0.996319 14.7728 0.966262 14.655 0.967431C14.5373 0.968601 14.422 1.00096 14.3208 1.0612C13.9306 1.29346 13.5105 1.47132 13.0721 1.58987C12.4461 1.05269 11.6477 0.758737 10.8228 0.761742C9.91782 0.762783 9.0487 1.11547 8.39892 1.74533C7.74914 2.37519 7.36957 3.23292 7.34035 4.13739C5.55634 3.8529 3.93944 2.92175 2.79799 1.52149C2.72921 1.43805 2.64138 1.37236 2.54189 1.32999C2.44241 1.28761 2.3342 1.26977 2.22637 1.27799C2.11861 1.28686 2.01464 1.32185 1.92344 1.37993C1.83223 1.43801 1.75655 1.51743 1.70293 1.61132C1.42795 2.0912 1.27002 2.62916 1.24197 3.18153C1.21391 3.73389 1.31653 4.28509 1.54147 4.79036L1.54017 4.79165C1.43907 4.85393 1.35564 4.94109 1.29784 5.04482C1.24005 5.14855 1.20984 5.26537 1.21009 5.38411C1.20887 5.48206 1.21475 5.57997 1.22767 5.67708C1.29577 6.51592 1.66753 7.30111 2.27325 7.88541C2.23216 7.96369 2.20708 8.04938 2.19948 8.13746C2.19187 8.22555 2.2019 8.31426 2.22897 8.39843C2.49305 9.22119 3.05464 9.9158 3.80385 10.3463C3.04267 10.6407 2.22079 10.7433 1.41061 10.6452C1.26066 10.6264 1.10877 10.6591 0.979846 10.7379C0.850925 10.8168 0.752632 10.9371 0.701091 11.0792C0.64955 11.2213 0.647821 11.3766 0.696188 11.5198C0.744555 11.663 0.840146 11.7855 0.967281 11.8672C2.36068 12.7646 3.98307 13.2418 5.64046 13.2415C7.51997 13.2627 9.35377 12.6621 10.8566 11.5332C12.3595 10.4043 13.4471 8.81033 13.9503 6.99932C14.1857 6.21041 14.3059 5.39164 14.3071 4.56836C14.3071 4.52474 14.3071 4.47982 14.3065 4.4349C14.6545 4.05952 14.9242 3.61844 15.0996 3.1375C15.275 2.65656 15.3526 2.14545 15.3279 1.63412ZM13.1235 3.77539C13.0134 3.90562 12.9577 4.07326 12.9679 4.24349C12.9744 4.3535 12.9738 4.46416 12.9738 4.56836C12.9724 5.26406 12.8704 5.9559 12.671 6.6224C12.26 8.16333 11.3438 9.52176 10.0691 10.4801C8.79437 11.4385 7.23491 11.9414 5.64046 11.9082C5.06771 11.9084 4.49694 11.8411 3.93994 11.7077C4.65022 11.4788 5.31433 11.1259 5.90153 10.6654C6.00968 10.5802 6.08883 10.4637 6.12812 10.3318C6.16741 10.1998 6.16492 10.059 6.12098 9.92853C6.07704 9.79809 5.99381 9.68443 5.88271 9.60316C5.77162 9.52189 5.63809 9.47699 5.50046 9.47462C4.94635 9.466 4.41721 9.24263 4.02455 8.85157C4.12416 8.83269 4.22312 8.80925 4.32143 8.78126C4.46543 8.74026 4.59146 8.652 4.6792 8.53068C4.76695 8.40936 4.81131 8.26204 4.80514 8.11244C4.79898 7.96284 4.74265 7.81966 4.64522 7.70597C4.54779 7.59228 4.41493 7.51469 4.26804 7.48568C3.9464 7.42216 3.64374 7.28532 3.38358 7.0858C3.12343 6.88628 2.91279 6.62946 2.76804 6.33529C2.88853 6.35173 3.00978 6.36195 3.13132 6.36589C3.27571 6.36807 3.41705 6.32427 3.5349 6.24082C3.65276 6.15738 3.74102 6.03861 3.78692 5.90169C3.83091 5.76354 3.82864 5.6148 3.78047 5.47805C3.7323 5.34129 3.64086 5.22397 3.51999 5.14388C3.22676 4.94853 2.98656 4.6835 2.8209 4.37252C2.65524 4.06154 2.5693 3.71433 2.57077 3.36199C2.57077 3.31772 2.57207 3.27345 2.57468 3.22983C4.06886 4.62333 6.0069 5.44479 8.04735 5.54949C8.15034 5.55355 8.25292 5.53415 8.34732 5.49276C8.44172 5.45136 8.52548 5.38906 8.59227 5.31056C8.65839 5.23129 8.70521 5.13776 8.72904 5.03733C8.75287 4.93689 8.75307 4.8323 8.72961 4.73178C8.69148 4.57269 8.67204 4.4097 8.67167 4.2461C8.67227 3.67579 8.8991 3.12901 9.30237 2.72575C9.70564 2.32248 10.2524 2.09566 10.8227 2.09505C11.1162 2.09427 11.4065 2.15432 11.6756 2.27142C11.9446 2.38852 12.1865 2.56012 12.3859 2.77539C12.4628 2.85812 12.5595 2.91979 12.667 2.95455C12.7745 2.98931 12.889 2.996 12.9998 2.97399C13.2737 2.92069 13.5436 2.84892 13.8077 2.75915C13.6276 3.1278 13.3973 3.46978 13.1235 3.77539Z" fill="#A0AEC0"/>
</svg>
