<svg width="20" height="21" viewBox="0 0 20 21" fill="none" xmlns="http://www.w3.org/2000/svg">
<path d="M2.5 7.44336C2.5 9.51444 4.17893 11.1934 6.25 11.1934C8.32107 11.1934 10 9.51444 10 7.44336C10 5.37229 8.32107 3.69336 6.25 3.69336C4.17893 3.69336 2.5 5.37229 2.5 7.44336Z" stroke="#A0AEC0" stroke-width="1.25" stroke-linecap="round"/>
<path fill-rule="evenodd" clip-rule="evenodd" d="M12.188 4.73604C12.6471 4.47053 13.1798 4.31836 13.7501 4.31836C15.476 4.31836 16.8751 5.71747 16.8751 7.44336C16.8751 9.16928 15.476 10.5684 13.7501 10.5684C13.1798 10.5684 12.6471 10.4162 12.188 10.1507C11.8893 9.97786 11.5069 10.0799 11.3341 10.3787C11.1613 10.6775 11.2633 11.0599 11.5622 11.2327C12.2063 11.6053 12.9543 11.8184 13.7501 11.8184C16.1663 11.8184 18.1251 9.85961 18.1251 7.44336C18.1251 5.02711 16.1663 3.06836 13.7501 3.06836C12.9543 3.06836 12.2063 3.28143 11.5622 3.65404C11.2633 3.82688 11.1613 4.20921 11.3341 4.50799C11.5069 4.80678 11.8893 4.90888 12.188 4.73604Z" fill="#A0AEC0"/>
<path d="M1.66675 17.0267C1.66675 16.2975 1.70393 11.1934 6.26867 11.1934C10.8334 11.1934 10.8334 16.2975 10.8334 17.0267" stroke="#A0AEC0" stroke-width="1.25" stroke-linecap="round" stroke-linejoin="round"/>
<path d="M11.875 4.19504C12.4266 3.87598 13.067 3.69336 13.75 3.69336C15.8211 3.69336 17.5 5.37229 17.5 7.44336C17.5 9.51444 15.8211 11.1934 13.75 11.1934C13.067 11.1934 12.4266 11.0108 11.875 10.6917M13.7058 11.1934C18.3333 11.1934 18.3333 16.2975 18.3333 17.0267" stroke="#A0AEC0" stroke-width="1.25" stroke-linecap="round"/>
</svg>
