<svg width="48" height="16" viewBox="0 0 48 16" fill="none" xmlns="http://www.w3.org/2000/svg">
<path d="M20.9528 14.9507H17.3906L19.6187 1.17578H23.1806L20.9528 14.9507Z" fill="white"/>
<path d="M33.8652 1.50833C33.1626 1.22961 32.0482 0.921875 30.6702 0.921875C27.1525 0.921875 24.6753 2.79751 24.6601 5.4791C24.6309 7.45757 26.4337 8.55646 27.782 9.21614C29.1602 9.89024 29.6287 10.3302 29.6287 10.9311C29.6146 11.8539 28.515 12.2793 27.4895 12.2793C26.0673 12.2793 25.3053 12.06 24.1472 11.5466L23.6782 11.3265L23.1797 14.4186C24.0152 14.7992 25.5544 15.137 27.1525 15.1518C30.8901 15.1518 33.3235 13.3051 33.3523 10.4475C33.3665 8.87939 32.4146 7.67785 30.3623 6.69602C29.1164 6.06574 28.3534 5.64076 28.3534 4.99587C28.368 4.40962 28.9987 3.80914 30.4051 3.80914C31.5632 3.77973 32.414 4.05806 33.0586 4.33658L33.3808 4.48285L33.8652 1.50833Z" fill="white"/>
<path d="M38.6021 10.0707C38.8954 9.27937 40.0243 6.21661 40.0243 6.21661C40.0094 6.24602 40.317 5.41066 40.4929 4.89783L40.7419 6.08476C40.7419 6.08476 41.4164 9.38201 41.5629 10.0707C41.0062 10.0707 39.3057 10.0707 38.6021 10.0707ZM42.9991 1.17578H40.2438C39.3941 1.17578 38.7486 1.4247 38.382 2.31869L33.0908 14.9505H36.8285C36.8285 14.9505 37.4438 13.2503 37.5761 12.8842C37.9861 12.8842 41.6221 12.8842 42.1496 12.8842C42.2519 13.3678 42.5747 14.9505 42.5747 14.9505H45.8729L42.9991 1.17578Z" fill="white"/>
<path d="M14.4153 1.17578L10.9267 10.5689L10.5455 8.6639C9.90058 6.46572 7.87786 4.07746 5.62061 2.88995L8.81598 14.9361H12.5829L18.182 1.17578H14.4153Z" fill="white"/>
<path d="M7.68824 1.17578H1.95707L1.89844 1.45414C6.36911 2.59737 9.32995 5.3531 10.5464 8.66534L9.30054 2.33382C9.09542 1.45394 8.46507 1.20481 7.68824 1.17578Z" fill="white"/>
</svg>
