<svg width="32" height="32" viewBox="0 0 32 32" fill="none" xmlns="http://www.w3.org/2000/svg">
<path fill-rule="evenodd" clip-rule="evenodd" d="M2.66675 14.6667V17.3333C2.66675 21.3333 2.66675 28 12.0001 28H20.0001C25.0199 28 27.3399 26.0715 28.4121 23.6667H22.6667C21.4617 23.6659 20.217 23.262 19.2609 22.4145C18.2859 21.5507 17.6677 20.2745 17.6667 18.6673C17.6658 17.0592 18.2843 15.7827 19.2598 14.9185C20.2163 14.0713 21.4611 13.6675 22.6661 13.6667H29.3287C29.2743 9.64868 28.5913 4 20.0001 4H12.0001C2.66675 4 2.66675 10.6667 2.66675 14.6667ZM29.3334 15.6667H22.6671C21.8902 15.6672 21.1343 15.93 20.5859 16.4157C20.0565 16.8847 19.6661 17.6075 19.6667 18.666C19.6674 19.7255 20.0582 20.4488 20.5874 20.9179C21.1354 21.4035 21.8906 21.6661 22.6674 21.6667H29.0315C29.3334 20.1528 29.3334 18.6077 29.3334 17.3333V15.6667ZM22.3334 18.6667C22.3334 18.1144 22.7811 17.6667 23.3334 17.6667H24.6667C25.219 17.6667 25.6667 18.1144 25.6667 18.6667C25.6667 19.2189 25.219 19.6667 24.6667 19.6667H23.3334C22.7811 19.6667 22.3334 19.2189 22.3334 18.6667Z" fill="white"/>
</svg>
