<svg width="20" height="20" viewBox="0 0 20 20" fill="none" xmlns="http://www.w3.org/2000/svg">
<path d="M1.6665 9.99935C1.6665 14.6017 5.39746 18.3327 9.99984 18.3327C14.6022 18.3327 18.3332 14.6017 18.3332 9.99935C18.3332 5.39697 14.6022 1.66602 9.99984 1.66602C5.39746 1.66602 1.6665 5.39697 1.6665 9.99935Z" stroke="#A0AEC0" stroke-width="1.25" stroke-linecap="round"/>
<path d="M8.53116 2.08398C5.48961 7.96704 5.48961 12.0342 8.53116 17.9173" stroke="#A0AEC0" stroke-width="1.25" stroke-linecap="round"/>
<path d="M11.4688 17.9173C14.5103 12.0342 14.5103 7.96704 11.4688 2.08398" stroke="#A0AEC0" stroke-width="1.25" stroke-linecap="round"/>
<path d="M17.9166 11.4688C12.0335 14.5103 7.96631 14.5103 2.08325 11.4688" stroke="#A0AEC0" stroke-width="1.25" stroke-linecap="round"/>
<path d="M2.08325 8.53116C7.96631 5.48961 12.0335 5.48961 17.9166 8.53116" stroke="#A0AEC0" stroke-width="1.25" stroke-linecap="round"/>
</svg>
