<svg width="41" height="40" viewBox="0 0 41 40" fill="none" xmlns="http://www.w3.org/2000/svg">
<rect x="0.5" width="40" height="40" rx="8" fill="#A0AEC0" fill-opacity="0.04"/>
<path d="M23.5668 21.3331C23.4335 21.2664 22.5668 20.8664 22.4335 20.7997C22.3002 20.7331 22.1668 20.7331 22.0335 20.8664C21.9002 20.9997 21.6335 21.3997 21.5002 21.5331C21.4335 21.6664 21.3002 21.6664 21.1668 21.5997C20.7002 21.3997 20.2335 21.1331 19.8335 20.7997C19.5002 20.4664 19.1668 20.0664 18.9002 19.6664C18.8335 19.5331 18.9002 19.3997 18.9668 19.3331C19.0335 19.2664 19.1002 19.1331 19.2335 19.0664C19.3002 18.9997 19.3668 18.8664 19.3668 18.7997C19.4335 18.7331 19.4335 18.5997 19.3668 18.5331C19.3002 18.4664 18.9668 17.6664 18.8335 17.3331C18.7668 16.8664 18.6335 16.8664 18.5002 16.8664C18.4335 16.8664 18.3002 16.8664 18.1668 16.8664C18.0335 16.8664 17.8335 16.9997 17.7668 17.0664C17.3668 17.4664 17.1668 17.9331 17.1668 18.4664C17.2335 19.0664 17.4335 19.6664 17.8335 20.1997C18.5668 21.2664 19.5002 22.1331 20.6335 22.6664C20.9668 22.7997 21.2335 22.9331 21.5668 22.9997C21.9002 23.1331 22.2335 23.1331 22.6335 23.0664C23.1002 22.9997 23.5002 22.6664 23.7668 22.2664C23.9002 21.9997 23.9002 21.7331 23.8335 21.4664C23.8335 21.4664 23.7002 21.3997 23.5668 21.3331ZM25.2335 15.2664C22.6335 12.6664 18.4335 12.6664 15.8335 15.2664C13.7002 17.3997 13.3002 20.6664 14.7668 23.2664L13.8335 26.6664L17.3668 25.7331C18.3668 26.2664 19.4335 26.5331 20.5002 26.5331C24.1668 26.5331 27.1002 23.5997 27.1002 19.9331C27.1668 18.1997 26.4335 16.5331 25.2335 15.2664ZM23.4335 24.5997C22.5668 25.1331 21.5668 25.4664 20.5002 25.4664C19.5002 25.4664 18.5668 25.1997 17.7002 24.7331L17.5002 24.5997L15.4335 25.1331L15.9668 23.1331L15.8335 22.9331C14.2335 20.2664 15.0335 16.9331 17.6335 15.2664C20.2335 13.5997 23.5668 14.4664 25.1668 16.9997C26.7668 19.5997 26.0335 22.9997 23.4335 24.5997Z" fill="#A0AEC0"/>
</svg>
